<svg xmlns="http://www.w3.org/2000/svg" viewBox="0 0 45 32"><g fill="none" fill-rule="evenodd" stroke-width="1.5"><path fill="#fff" d="M43.782 15.1c0-7.142-9.323-12.966-20.823-12.966S2.138 7.958 2.138 15.1l-.004.759c0 7.58 8.149 13.717 20.821 13.717 12.753 0 20.828-6.135 20.828-13.715z"/><path fill="#333" d="M22.963 27.29c-11.059 0-20.023-5.461-20.023-12.196S11.904 2.902 22.963 2.902c11.057 0 20.021 5.461 20.021 12.194 0 6.735-8.964 12.196-20.021 12.196z"/><path fill="#fff" d="M16.314 11.247c-.011.019-.209.215-.081.373.318.384 1.293.606 2.281.395.587-.126 1.34-.695 2.069-1.248.789-.597 1.574-1.195 2.364-1.434.836-.254 1.37-.145 1.724-.043.388.109.845.352 1.572.873 1.37.981 6.878 5.557 7.829 6.349.768-.329 4.175-1.726 8.804-2.697-.403-2.351-1.903-4.501-4.181-6.261-3.172 1.269-7.053 1.933-10.844.169-.021-.009-2.074-.932-4.096-.887-3.01.066-4.314 1.308-5.694 2.62z"/><path fill="#fff" d="M33.847 17.011c-.064-.055-6.477-5.397-7.93-6.438-.841-.599-1.308-.753-1.798-.811-.256-.032-.61.013-.858.077-.674.175-1.557.738-2.342 1.329-.813.617-1.579 1.195-2.289 1.348-.909.192-2.018-.034-2.524-.363-.205-.128-.35-.282-.418-.435-.188-.412.158-.742.213-.798l1.771-1.822q.308-.293.625-.585c-.572.073-1.099.211-1.613.346-.64.171-1.259.335-1.882.335-.26 0-1.655-.218-1.92-.286-1.602-.418-3.008-.823-5.107-1.758-2.517 1.783-4.198 4.013-4.685 6.47.363.09.943.256 1.188.307 5.694 1.205 7.467 2.447 7.787 2.705.35-.369.853-.602 1.412-.602.631 0 1.199.301 1.545.768a2.2 2.2 0 0 1 1.357-.454c.262 0 .538.047.813.134.642.211.975.619 1.146.986a2 2 0 0 1 .794-.16c.305 0 .625.068.947.198 1.05.431 1.212 1.412 1.118 2.153q.111-.013.226-.013c1.244 0 2.257.964 2.257 2.15 0 .367-.1.71-.271 1.013.339.181 1.201.591 1.961.501.606-.073.834-.271.917-.382.055-.077.115-.164.06-.228l-1.606-1.7s-.265-.237-.177-.329c.092-.096.256.041.369.132.819.651 1.818 1.632 1.818 1.632.017.011.083.134.452.198.318.053.879.021 1.269-.284.098-.077.196-.171.277-.271l-.017.013c.41-.499-.045-1.007-.045-1.007l-1.877-2.005s-.267-.235-.177-.331c.083-.081.256.043.373.137.593.471 1.431 1.274 2.236 2.022.158.111.864.527 1.801-.06.567-.354.683-.789.666-1.118-.041-.435-.397-.747-.397-.747l-2.56-2.451s-.271-.22-.177-.331c.079-.094.256.043.369.132.817.651 3.027 2.579 3.027 2.579.03.021.794.538 1.737-.034.337-.205.555-.512.572-.875.032-.623-.431-.992-.431-.992z"/><path fill="#fff" d="M21.423 20.117c-.399-.002-.832.222-.89.19-.03-.021.026-.171.062-.26.038-.085.561-1.585-.715-2.106-.975-.399-1.572.049-1.777.252-.053.053-.077.049-.085-.019-.017-.269-.145-.998-.988-1.244-1.203-.35-1.978.448-2.174.738-.085-.653-.668-1.161-1.378-1.161-.772 0-1.397.595-1.399 1.329 0 .734.627 1.329 1.397 1.329.375 0 .717-.141.966-.371.009.009.011.021.009.045-.06.331-.169 1.525 1.148 2.012.527.196.975.051 1.348-.198.109-.075.128-.043.111.058-.047.307.013.964.981 1.34.74.286 1.175-.006 1.461-.258.124-.109.158-.092.164.075.036.892.811 1.598 1.756 1.6.971 0 1.758-.749 1.758-1.673 0-.926-.785-1.664-1.756-1.675z"/><path fill="#333" d="M21.423 23.345c-.881 0-1.596-.651-1.63-1.481 0-.073-.009-.26-.177-.26-.068 0-.128.038-.198.098-.192.171-.439.343-.8.343q-.247 0-.527-.107c-.93-.361-.943-.969-.905-1.212.011-.064.013-.134-.034-.186l-.058-.049h-.058c-.047 0-.096.017-.162.064-.269.177-.527.265-.789.265-.143 0-.292-.028-.439-.081-1.225-.454-1.126-1.553-1.067-1.884q.013-.102-.053-.154l-.085-.068-.083.073c-.239.22-.55.341-.879.341-.7-.002-1.271-.544-1.269-1.212 0-.668.572-1.21 1.271-1.21.634 0 1.173.454 1.254 1.056l.043.326.188-.277c.021-.03.533-.77 1.478-.768.179 0 .367.026.553.081.753.22.881.868.9 1.139.013.158.13.166.154.166.064 0 .113-.041.147-.075a1.3 1.3 0 0 1 .934-.375c.222 0 .459.051.702.149 1.195.491.653 1.937.646 1.952-.102.239-.107.346-.011.405l.049.021h.034a1 1 0 0 0 .233-.055c.162-.055.407-.134.638-.134.9.009 1.634.706 1.632 1.555 0 .855-.734 1.551-1.632 1.551zm12.672-6.976c-1.973-1.641-6.539-5.419-7.776-6.302-.706-.506-1.188-.772-1.611-.894a3 3 0 0 0-.791-.117q-.476 0-1.005.162c-.8.241-1.596.843-2.368 1.425l-.038.03c-.717.544-1.457 1.105-2.018 1.225a3.7 3.7 0 0 1-.747.079c-.629 0-1.195-.173-1.408-.431q-.051-.063.07-.209l.011-.013 1.739-1.783c1.361-1.297 2.645-2.519 5.606-2.583l.149-.002c1.839 0 3.682.785 3.889.875 1.728.804 3.509 1.212 5.301 1.212 1.867 0 3.795-.439 5.82-1.327a16 16 0 0 0-.704-.531c-1.779.736-3.475 1.107-5.111 1.105-1.67 0-3.341-.384-4.962-1.135-.085-.041-2.118-.951-4.235-.954l-.166.002c-2.485.055-3.885.896-4.828 1.632-.917.021-1.707.233-2.409.418-.627.166-1.169.309-1.698.309-.218 0-.608-.019-.644-.021-.606-.015-3.669-.73-6.101-1.609q-.375.254-.723.516c2.545.994 5.641 1.762 6.618 1.822.271.017.561.047.851.047.646 0 1.291-.173 1.916-.339.369-.098.774-.205 1.203-.284q-.172.159-.341.324l-1.766 1.818c-.139.134-.442.491-.243.93.079.177.241.346.465.491.42.269 1.173.452 1.873.452q.402 0 .747-.075c.742-.158 1.519-.747 2.34-1.37.655-.495 1.587-1.124 2.3-1.31.198-.051.444-.085.64-.085q.09.002.166.011c.469.058.926.209 1.739.789 1.451 1.037 7.863 6.379 7.925 6.432.004.004.414.341.384.896-.013.314-.194.589-.512.781q-.41.25-.841.25c-.427 0-.725-.192-.742-.205-.023-.017-2.223-1.937-3.029-2.581-.128-.1-.256-.192-.382-.192a.21.21 0 0 0-.166.075c-.128.149.015.356.181.491l2.571 2.458c.002.002.32.286.354.661.021.407-.186.747-.61 1.013-.303.192-.61.286-.909.286-.395 0-.672-.171-.732-.211l-.369-.346c-.674-.629-1.367-1.28-1.877-1.685-.124-.098-.256-.188-.382-.188a.22.22 0 0 0-.162.064c-.058.062-.098.171.047.354.06.077.128.139.128.139l1.875 2.003c.015.017.384.437.043.853l-.068.081a2 2 0 0 1-.173.16c-.32.25-.747.277-.917.277-.09 0-.177-.009-.252-.021q-.279-.047-.369-.149l-.021-.021c-.105-.102-1.047-1.02-1.828-1.641-.105-.081-.233-.186-.365-.186a.24.24 0 0 0-.171.073c-.154.162.079.401.177.491l1.598 1.677q0 .023-.062.102c-.055.077-.25.26-.83.329a1.4 1.4 0 0 1-.213.013c-.597 0-1.233-.277-1.562-.442.149-.299.226-.631.226-.964 0-1.252-1.067-2.27-2.381-2.27h-.085c.043-.572-.043-1.653-1.21-2.129a2.6 2.6 0 0 0-.996-.209q-.385 0-.732.126c-.241-.448-.642-.774-1.167-.943a2.7 2.7 0 0 0-.853-.145 2.35 2.35 0 0 0-1.333.405 2.07 2.07 0 0 0-1.568-.719 2.08 2.08 0 0 0-1.423.561c-.497-.363-2.47-1.555-7.748-2.697a26 26 0 0 1-1.203-.316 7 7 0 0 0-.134.826s.975.222 1.165.262c5.393 1.141 7.177 2.325 7.477 2.551a1.8 1.8 0 0 0-.156.738c0 1.06.905 1.924 2.02 1.924q.19 0 .371-.03c.169.779.704 1.372 1.525 1.675.239.087.482.134.719.134q.232 0 .461-.055c.149.365.491.821 1.254 1.118.267.1.533.156.794.156q.319 0 .617-.107c.365.847 1.233 1.408 2.202 1.408.642 0 1.259-.247 1.707-.689.386.205 1.199.574 2.02.576.107 0 .205-.009.305-.021.815-.098 1.195-.401 1.367-.636q.048-.064.085-.13c.192.051.405.094.646.096.444 0 .87-.145 1.301-.444.427-.292.727-.71.77-1.067l.002-.015q.217.042.437.043c.459 0 .909-.137 1.34-.405.832-.518.975-1.195.96-1.638q.22.042.444.043c.429 0 .853-.122 1.254-.367.514-.314.826-.794.873-1.35a1.76 1.76 0 0 0-.277-1.092c1.391-.572 4.574-1.677 8.32-2.479a7 7 0 0 0-.117-.823c-4.533.96-7.915 2.353-8.762 2.709z"/></g></svg>