<svg width="32" height="32" fill="none" xmlns="http://www.w3.org/2000/svg"><circle cx="16" cy="16" r="16" fill="#000" fill-opacity=".04"/><path fill-rule="evenodd" clip-rule="evenodd" d="M15.148 9.858A3.838 3.838 0 0 1 18.858 7h1.337v4.045a3.836 3.836 0 0 1-3.836 3.837h-.839a3.836 3.836 0 0 1-3.836-3.837V8.46h.502c1.193 0 2.259.544 2.962 1.398Zm.874.978A2.836 2.836 0 0 1 18.86 8h.336v3.045a2.836 2.836 0 0 1-2.836 2.837h-.337V10.836Zm-1 1.438v1.564a2.837 2.837 0 0 1-2.338-2.793V9.503a2.837 2.837 0 0 1 2.338 2.771Z" fill="#000" fill-opacity=".8"/><path d="M22.205 14.006a1.722 1.722 0 0 1 2.448 2.422l-5.105 5.863a2.168 2.168 0 0 1-1.635.745h-5.085l-1.713 1.66-.696-.717 2.004-1.943h5.49c.337 0 .659-.146.88-.401l5.128-5.889.012-.012a.721.721 0 0 0-1.018-1.023l-4.329 4.496c-.277.407-.718.688-1.255.689l-3.015.007-.002-1 3.015-.007c.257 0 .58-.266.58-.746 0-.477-.322-.741-.578-.741l-4.488.006c-.27 0-.543.116-.764.349l-.011.012-3.89 3.584-.678-.735 3.866-3.562a2.052 2.052 0 0 1 1.476-.648l4.489-.006c.714 0 1.26.495 1.476 1.127l3.392-3.523.006-.007Z" fill="#000" fill-opacity=".8"/></svg>